<svg width="67" height="14" viewBox="0 0 67 14" fill="none" xmlns="http://www.w3.org/2000/svg">
<path d="M6.01311 2.73809C6.20994 2.33932 6.77857 2.33933 6.9754 2.73809L7.98148 4.77629C8.05957 4.9345 8.21045 5.04421 8.38503 5.06972L10.6357 5.3987C11.0757 5.463 11.251 6.00378 10.9325 6.31401L9.30476 7.89945C9.1782 8.02272 9.12043 8.2004 9.1503 8.37453L9.53434 10.6137C9.60952 11.0521 9.14939 11.3863 8.75574 11.1793L6.744 10.1214C6.58765 10.0391 6.40085 10.0391 6.24451 10.1214L4.23277 11.1793C3.83912 11.3863 3.37899 11.0521 3.45417 10.6137L3.83821 8.37453C3.86808 8.2004 3.81031 8.02272 3.68375 7.89945L2.05598 6.31401C1.73747 6.00378 1.91282 5.463 2.35276 5.3987L4.60348 5.06972C4.77806 5.04421 4.92894 4.9345 5.00703 4.77629L6.01311 2.73809Z" fill="#4E60FF"/>
<path d="M19.4274 2.73809C19.6242 2.33932 20.1929 2.33933 20.3897 2.73809L21.3958 4.77629C21.4739 4.9345 21.6248 5.04421 21.7993 5.06972L24.0501 5.3987C24.49 5.463 24.6653 6.00378 24.3468 6.31401L22.7191 7.89945C22.5925 8.02272 22.5347 8.2004 22.5646 8.37453L22.9486 10.6137C23.0238 11.0521 22.5637 11.3863 22.1701 11.1793L20.1583 10.1214C20.002 10.0391 19.8152 10.0391 19.6588 10.1214L17.6471 11.1793C17.2534 11.3863 16.7933 11.0521 16.8685 10.6137L17.2525 8.37453C17.2824 8.2004 17.2246 8.02272 17.0981 7.89945L15.4703 6.31401C15.1518 6.00378 15.3271 5.463 15.7671 5.3987L18.0178 5.06972C18.1924 5.04421 18.3432 4.9345 18.4213 4.77629L19.4274 2.73809Z" fill="#4E60FF"/>
<path d="M32.8417 2.73809C33.0386 2.33932 33.6072 2.33933 33.804 2.73809L34.8101 4.77629C34.8882 4.9345 35.0391 5.04421 35.2136 5.06972L37.4644 5.3987C37.9043 5.463 38.0796 6.00378 37.7611 6.31401L36.1334 7.89945C36.0068 8.02272 35.949 8.2004 35.9789 8.37453L36.363 10.6137C36.4381 11.0521 35.978 11.3863 35.5844 11.1793L33.5726 10.1214C33.4163 10.0391 33.2295 10.0391 33.0731 10.1214L31.0614 11.1793C30.6677 11.3863 30.2076 11.0521 30.2828 10.6137L30.6668 8.37453C30.6967 8.2004 30.6389 8.02272 30.5124 7.89945L28.8846 6.31401C28.5661 6.00378 28.7414 5.463 29.1814 5.3987L31.4321 5.06972C31.6067 5.04421 31.7575 4.9345 31.8356 4.77629L32.8417 2.73809Z" fill="#4E60FF"/>
<path d="M46.256 2.73809C46.4529 2.33932 47.0215 2.33933 47.2183 2.73809L48.2244 4.77629C48.3025 4.9345 48.4534 5.04421 48.6279 5.06972L50.8787 5.3987C51.3186 5.463 51.494 6.00378 51.1754 6.31401L49.5477 7.89945C49.4211 8.02272 49.3634 8.2004 49.3932 8.37453L49.7773 10.6137C49.8524 11.0521 49.3923 11.3863 48.9987 11.1793L46.9869 10.1214C46.8306 10.0391 46.6438 10.0391 46.4874 10.1214L44.4757 11.1793C44.082 11.3863 43.6219 11.0521 43.6971 10.6137L44.0811 8.37453C44.111 8.2004 44.0532 8.02272 43.9267 7.89945L42.2989 6.31401C41.9804 6.00378 42.1557 5.463 42.5957 5.3987L44.8464 5.06972C45.021 5.04421 45.1719 4.9345 45.2499 4.77629L46.256 2.73809Z" fill="#4E60FF"/>
<path d="M59.6702 2.73809C59.867 2.33932 60.4357 2.33933 60.6325 2.73809L61.6386 4.77629C61.7167 4.9345 61.8676 5.04421 62.0421 5.06972L64.2929 5.3987C64.7328 5.463 64.9081 6.00378 64.5896 6.31401L62.9619 7.89945C62.8353 8.02272 62.7775 8.2004 62.8074 8.37453L63.1914 10.6137C63.2666 11.0521 62.8065 11.3863 62.4128 11.1793L60.4011 10.1214C60.2448 10.0391 60.058 10.0391 59.9016 10.1214L57.8899 11.1793C57.4962 11.3863 57.0361 11.0521 57.1113 10.6137L57.4953 8.37453C57.5252 8.2004 57.4674 8.02272 57.3409 7.89945L55.7131 6.31401C55.3946 6.00378 55.5699 5.463 56.0099 5.3987L58.2606 5.06972C58.4352 5.04421 58.586 4.9345 58.6641 4.77629L59.6702 2.73809Z" fill="#4E60FF"/>
</svg>
