<svg width="68" height="13" viewBox="0 0 68 13" fill="none" xmlns="http://www.w3.org/2000/svg">
<path d="M6.75322 2.23235C6.95005 1.83359 7.51868 1.83359 7.71551 2.23235L8.72159 4.27056C8.79969 4.42876 8.95056 4.53847 9.12514 4.56399L11.3759 4.89296C11.8158 4.95727 11.9911 5.49805 11.6726 5.80827L10.0449 7.39371C9.91831 7.51699 9.86054 7.69466 9.89041 7.8688L10.2745 10.108C10.3496 10.5463 9.8895 10.8806 9.49586 10.6736L7.48411 9.61562C7.32777 9.5334 7.14097 9.5334 6.98462 9.61562L4.97288 10.6736C4.57923 10.8806 4.1191 10.5463 4.19428 10.108L4.57833 7.8688C4.60819 7.69466 4.55042 7.51699 4.42386 7.39371L2.79609 5.80827C2.47759 5.49805 2.65293 4.95727 3.09287 4.89296L5.3436 4.56399C5.51817 4.53847 5.66905 4.42876 5.74714 4.27056L6.75322 2.23235Z" fill="#4E60FF"/>
<path d="M20.1675 2.23235C20.3644 1.83359 20.933 1.83359 21.1298 2.23235L22.1359 4.27056C22.214 4.42876 22.3649 4.53847 22.5394 4.56399L24.7902 4.89296C25.2301 4.95727 25.4055 5.49805 25.0869 5.80827L23.4592 7.39371C23.3326 7.51699 23.2748 7.69466 23.3047 7.8688L23.6888 10.108C23.7639 10.5463 23.3038 10.8806 22.9102 10.6736L20.8984 9.61562C20.7421 9.5334 20.5553 9.5334 20.3989 9.61562L18.3872 10.6736C17.9935 10.8806 17.5334 10.5463 17.6086 10.108L17.9926 7.8688C18.0225 7.69466 17.9647 7.51699 17.8382 7.39371L16.2104 5.80827C15.8919 5.49805 16.0672 4.95727 16.5072 4.89296L18.7579 4.56399C18.9325 4.53847 19.0834 4.42876 19.1614 4.27056L20.1675 2.23235Z" fill="#4E60FF"/>
<path d="M33.5817 2.23235C33.7785 1.83359 34.3472 1.83359 34.544 2.23235L35.5501 4.27056C35.6282 4.42876 35.7791 4.53847 35.9536 4.56399L38.2044 4.89296C38.6443 4.95727 38.8196 5.49805 38.5011 5.80827L36.8734 7.39371C36.7468 7.51699 36.689 7.69466 36.7189 7.8688L37.1029 10.108C37.1781 10.5463 36.718 10.8806 36.3243 10.6736L34.3126 9.61562C34.1563 9.5334 33.9695 9.5334 33.8131 9.61562L31.8014 10.6736C31.4077 10.8806 30.9476 10.5463 31.0228 10.108L31.4068 7.8688C31.4367 7.69466 31.3789 7.51699 31.2524 7.39371L29.6246 5.80827C29.3061 5.49805 29.4814 4.95727 29.9214 4.89296L32.1721 4.56399C32.3467 4.53847 32.4975 4.42876 32.5756 4.27056L33.5817 2.23235Z" fill="#4E60FF"/>
<path d="M46.996 2.23235C47.1929 1.83359 47.7615 1.83359 47.9583 2.23235L48.9644 4.27056C49.0425 4.42876 49.1934 4.53847 49.3679 4.56399L51.6187 4.89296C52.0586 4.95727 52.2339 5.49805 51.9154 5.80827L50.2877 7.39371C50.1611 7.51699 50.1033 7.69466 50.1332 7.8688L50.5173 10.108C50.5924 10.5463 50.1323 10.8806 49.7387 10.6736L47.7269 9.61562C47.5706 9.5334 47.3838 9.5334 47.2274 9.61562L45.2157 10.6736C44.822 10.8806 44.3619 10.5463 44.4371 10.108L44.8211 7.8688C44.851 7.69466 44.7932 7.51699 44.6667 7.39371L43.0389 5.80827C42.7204 5.49805 42.8957 4.95727 43.3357 4.89296L45.5864 4.56399C45.761 4.53847 45.9118 4.42876 45.9899 4.27056L46.996 2.23235Z" fill="#4E60FF"/>
<path opacity="0.5" d="M60.4103 2.23235C60.6072 1.83359 61.1758 1.83359 61.3726 2.23235L62.3787 4.27056C62.4568 4.42876 62.6077 4.53847 62.7822 4.56399L65.033 4.89296C65.4729 4.95727 65.6483 5.49805 65.3297 5.80827L63.702 7.39371C63.5754 7.51699 63.5176 7.69466 63.5475 7.8688L63.9316 10.108C64.0067 10.5463 63.5466 10.8806 63.153 10.6736L61.1412 9.61562C60.9849 9.5334 60.7981 9.5334 60.6417 9.61562L58.63 10.6736C58.2363 10.8806 57.7762 10.5463 57.8514 10.108L58.2354 7.8688C58.2653 7.69466 58.2075 7.51699 58.081 7.39371L56.4532 5.80827C56.1347 5.49805 56.31 4.95727 56.75 4.89296L59.0007 4.56399C59.1753 4.53847 59.3262 4.42876 59.4042 4.27056L60.4103 2.23235Z" fill="#C7C8D2"/>
</svg>
