<svg width="15" height="15" viewBox="0 0 15 15" fill="none" xmlns="http://www.w3.org/2000/svg">
<g clip-path="url(#clip0_7826_484)">
<path d="M10.718 1.72095H12.3098C12.6473 1.71498 12.9751 1.83311 13.2312 2.05292C13.4873 2.27272 13.6537 2.5789 13.699 2.91333V7.08666C13.6537 7.42109 13.4873 7.72727 13.2312 7.94707C12.9751 8.16688 12.6473 8.28501 12.3098 8.27904H10.718M6.54468 9.47143V11.8562C6.54468 12.3305 6.73312 12.7855 7.06854 13.1209C7.40396 13.4563 7.85889 13.6448 8.33325 13.6448L10.718 8.27904V1.72095H3.99298C3.70542 1.7177 3.42638 1.81848 3.20726 2.00473C2.98814 2.19098 2.84372 2.45015 2.8006 2.73447L1.97786 8.10019C1.95192 8.27108 1.96345 8.44557 2.01164 8.61157C2.05983 8.77757 2.14354 8.9311 2.25696 9.06154C2.37038 9.19197 2.5108 9.29619 2.6685 9.36696C2.8262 9.43774 2.9974 9.47338 3.17024 9.47143H6.54468Z" stroke="#83859C" stroke-width="0.894286" stroke-linecap="round" stroke-linejoin="round"/>
</g>
<defs>
<clipPath id="clip0_7826_484">
<rect width="14.3086" height="14.3086" fill="white" transform="translate(0.582764 0.528564)"/>
</clipPath>
</defs>
</svg>
